<svg id="Layer_1" data-name="Layer 1" xmlns="http://www.w3.org/2000/svg" viewBox="0 0 138.47 35.24"><defs><style>.cls-1{fill:#fff;}.cls-2{fill:#276e6a;}</style></defs><path class="cls-1" d="M39.58,27l-.81,8A16.17,16.17,0,0,1,38,39.18a7,7,0,0,1-1.81,2.57A6,6,0,0,1,32,43.43a4,4,0,0,1-1.17-.25L32.17,42a5,5,0,0,0,1.53.27c1.95,0,3.08-1.47,3.38-4.43l.26-2.46L38.16,27H36.38l1.13-1.15h.78l.06-.58a10,10,0,0,1,2.11-5.72,5.71,5.71,0,0,1,4.54-2,8.94,8.94,0,0,1,1.18.1L44.79,19a4.08,4.08,0,0,0-1.46-.29,2.62,2.62,0,0,0-2.43,1.19,11.89,11.89,0,0,0-1,4.53l-.15,1.46h4L42.54,27Z" transform="translate(-10.88 -8.19)"/><path class="cls-1" d="M48.81,31.94a.48.48,0,0,1,.25.39,2.29,2.29,0,0,1-.64,1.06,4.64,4.64,0,0,1-3.35,2,2.07,2.07,0,0,1-1.67-.8,3.14,3.14,0,0,1-.65-2.06,7.7,7.7,0,0,1,1.71-4.57c1.14-1.55,2.27-2.32,3.38-2.32.81,0,1.22.43,1.22,1.3a4.07,4.07,0,0,1-1.42,2.85,7.64,7.64,0,0,1-3.45,1.93c.14,1.59.76,2.38,1.89,2.38S48.1,33.35,48.81,31.94Zm-4.58-1.47a1.58,1.58,0,0,0,.53.1,3.25,3.25,0,0,0,2.15-.76,2.22,2.22,0,0,0,.93-1.76,1,1,0,0,0-1.19-1.16,1.92,1.92,0,0,0-1.54,1A5.75,5.75,0,0,0,44.23,30.47Z" transform="translate(-10.88 -8.19)"/><path class="cls-1" d="M57.6,31.14a15.29,15.29,0,0,1-2.1,3c-.73.79-1.33,1.19-1.79,1.19-.64,0-1-.67-1.05-2L52.59,32l-.13-2.8,0-.81c-.06-1.06-.26-1.59-.59-1.59-.51,0-1,.49-1.51,1.46a.49.49,0,0,1-.25-.39c0-.36.32-.82,1-1.39a2.71,2.71,0,0,1,1.57-.85.9.9,0,0,1,.88.56,6.07,6.07,0,0,1,.34,2.07L54,31.7c.07,1.32.28,2,.64,2,.53,0,1.2-.61,2-1.84a10.1,10.1,0,0,0,1.52-3.61l.39-2,1.76-.61a18.29,18.29,0,0,0-.69,2.64l-1.33,6.65a12.42,12.42,0,0,1-2.42,5.77,7.38,7.38,0,0,1-5.67,2.78,4.85,4.85,0,0,1-1.52-.3l1.22-1.35a4.67,4.67,0,0,0,1.94.42,3.68,3.68,0,0,0,3.1-1.34A12.37,12.37,0,0,0,56.67,36Z" transform="translate(-10.88 -8.19)"/><path class="cls-1" d="M60.75,35.29l.82-1.58c.38-.4.74-.82,1.1-1.27l.63-.79c.21-.27.37-.47.49-.6l.45-.55c.15-.18.38-.48.7-.9l.89-1.15.76-1c.06-.06.13-.15.23-.27l-.29,0a7.73,7.73,0,0,1-1.89-.34l-.35-.1-.3-.1a2,2,0,0,0-.49-.08c-.46,0-.7.26-.7.78A1.42,1.42,0,0,0,63,28l-1.15,1c0-.22,0-.39,0-.49a2.92,2.92,0,0,1,.77-2,2.32,2.32,0,0,1,1.8-.86,4.37,4.37,0,0,1,.71.08l.57.1.48.07a8.62,8.62,0,0,0,1.15.14,4.21,4.21,0,0,0,1.56-.33l-.87,1.59c-.49.54-1,1.12-1.5,1.75l-.78,1-.69.87-.46.56-.42.51c-.38.47-.6.74-.64.8l-.48.69-.36.45a8.41,8.41,0,0,1,.9-.06,11,11,0,0,1,1.42.11l.64.08.61.08a5.68,5.68,0,0,0,.72,0,1.55,1.55,0,0,0,1.35-.58.47.47,0,0,1,.17.29,1.31,1.31,0,0,1-.57,1,1.83,1.83,0,0,1-1.19.47c-.19,0-.43,0-.72,0l-.65-.05-.58,0c-.48,0-1-.06-1.42-.06A14.62,14.62,0,0,0,60.75,35.29Z" transform="translate(-10.88 -8.19)"/><path class="cls-1" d="M75.86,31.15a12.92,12.92,0,0,1-2.46,3,3.83,3.83,0,0,1-2.33,1.18c-.91,0-1.36-.73-1.36-2.19a7.6,7.6,0,0,1,2-5.23,6.09,6.09,0,0,1,4.68-2.2,5.06,5.06,0,0,1,1.76.26c0,.11,0,.19-.06.21l-.12.53c-.08.36-.12.57-.13.63l-.63,4.38-.09.64A10.49,10.49,0,0,0,77,33.63c0,.29.08.43.25.43.55,0,1.12-.62,1.69-1.85.18.1.27.21.27.31a3.36,3.36,0,0,1-.85,1.4c-.78.95-1.49,1.43-2.15,1.43-.49,0-.73-.32-.73-1,0-.2,0-.47.07-.83l.1-.79.13-.87Zm.57-3.93a3.79,3.79,0,0,0-1.83-.5,2.71,2.71,0,0,0-2.33,1.69,8.53,8.53,0,0,0-.94,4.2c0,.86.25,1.29.76,1.29a3.34,3.34,0,0,0,2.13-1.35,7.69,7.69,0,0,0,2-4.25Z" transform="translate(-10.88 -8.19)"/><path class="cls-1" d="M84.84,29.56a12,12,0,0,1,2.37-3,3.7,3.7,0,0,1,2.3-1.17c.95,0,1.43.81,1.43,2.43a7.38,7.38,0,0,1-1.89,5.09A5.93,5.93,0,0,1,84.49,35a5.21,5.21,0,0,1-.6,0l-.8-.08-.38,0A9,9,0,0,0,83,33.26l1-8.56a9.21,9.21,0,0,1,2.28-5.26,5.71,5.71,0,0,1,4.33-2.18,4.19,4.19,0,0,1,1,.11L90.07,18.8A3.77,3.77,0,0,0,89,18.63c-2,0-3.13,1.54-3.46,4.61Zm-.43,3.92a3.77,3.77,0,0,0,1.84.51,2.53,2.53,0,0,0,2.22-1.59,8.6,8.6,0,0,0,.85-4.11c0-1-.27-1.48-.8-1.48a3.21,3.21,0,0,0-2.09,1.34,7.49,7.49,0,0,0-1.9,4.26Z" transform="translate(-10.88 -8.19)"/><path class="cls-1" d="M98.31,30.9a12.92,12.92,0,0,1-2.46,3,3.88,3.88,0,0,1-2.33,1.18c-.91,0-1.36-.73-1.36-2.2a7.55,7.55,0,0,1,2-5.22,6.1,6.1,0,0,1,4.68-2.21,5.31,5.31,0,0,1,1.76.26c0,.12,0,.19-.06.22l-.12.52c-.08.37-.12.58-.13.64l-.63,4.38-.09.63a10.79,10.79,0,0,0-.13,1.26c0,.28.08.43.25.43.55,0,1.12-.62,1.69-1.86.18.11.27.21.27.32a3.36,3.36,0,0,1-.85,1.4c-.78.95-1.49,1.43-2.15,1.43-.49,0-.73-.33-.73-1A6.1,6.1,0,0,1,98,33.3l.1-.79.13-.88ZM98.88,27a3.69,3.69,0,0,0-1.83-.5,2.71,2.71,0,0,0-2.33,1.69,8.53,8.53,0,0,0-1,4.2c0,.86.26,1.29.77,1.29a3.34,3.34,0,0,0,2.13-1.35,7.75,7.75,0,0,0,2-4.26Z" transform="translate(-10.88 -8.19)"/><path class="cls-1" d="M102,34.56l1.37-1.12a2.57,2.57,0,0,0,2,.82,1.24,1.24,0,0,0,1.43-1.38,3.84,3.84,0,0,0-1.31-2.13l-.57-.58a3.58,3.58,0,0,1-1.24-2.11,2.38,2.38,0,0,1,1-1.93,3.89,3.89,0,0,1,2.46-.78,5.69,5.69,0,0,1,1.73.29l-1.19,1.1a2.75,2.75,0,0,0-1.67-.56q-1.08,0-1.08.9c0,.43.4,1.06,1.2,1.9l.61.65a4,4,0,0,1,1.37,2.3,2.8,2.8,0,0,1-1.2,2.21,4.3,4.3,0,0,1-2.77,1A4.22,4.22,0,0,1,102,34.56Z" transform="translate(-10.88 -8.19)"/><path class="cls-1" d="M116,30.9a12.92,12.92,0,0,1-2.46,3,3.9,3.9,0,0,1-2.34,1.18c-.9,0-1.35-.73-1.35-2.2a7.55,7.55,0,0,1,2-5.22,6.09,6.09,0,0,1,4.68-2.21,5.31,5.31,0,0,1,1.76.26,1,1,0,0,0-.06.22l-.12.52c-.08.37-.12.58-.13.64l-.63,4.38-.09.63a10.79,10.79,0,0,0-.13,1.26c0,.28.08.43.24.43.56,0,1.12-.62,1.7-1.86.18.11.27.21.27.32a3.48,3.48,0,0,1-.85,1.4c-.78.95-1.49,1.43-2.16,1.43-.48,0-.72-.33-.72-1a6.1,6.1,0,0,1,.07-.82l.1-.79.13-.88Zm.56-3.93a3.65,3.65,0,0,0-1.82-.5,2.7,2.7,0,0,0-2.33,1.69,8.53,8.53,0,0,0-1,4.2c0,.86.26,1.29.77,1.29a3.34,3.34,0,0,0,2.13-1.35A7.75,7.75,0,0,0,116.37,28Z" transform="translate(-10.88 -8.19)"/><path class="cls-1" d="M123.47,29.52q2.2-4.17,4.33-4.17a2.63,2.63,0,0,1,1.11.25l-1.4,1.53a1.62,1.62,0,0,0-.81-.18c-.69,0-1.41.56-2.17,1.67a7.53,7.53,0,0,0-1.35,3.48l-.27,2.42-1.47.5,0-.3.07-.65.08-.64.52-4.72.06-.52c0-.39.07-.71.07-1,0-.4-.12-.61-.34-.61-.53,0-1.06.57-1.58,1.7a.47.47,0,0,1-.24-.39c0-.4.39-.93,1.11-1.6a3,3,0,0,1,1.7-1c.57,0,.85.37.85,1.11,0,.17,0,.42,0,.72l-.07.69-.09.84Z" transform="translate(-10.88 -8.19)"/><path class="cls-1" d="M134.55,30.9a12.92,12.92,0,0,1-2.46,3,3.9,3.9,0,0,1-2.34,1.18c-.9,0-1.35-.73-1.35-2.2a7.59,7.59,0,0,1,2-5.22,6.12,6.12,0,0,1,4.69-2.21,5.35,5.35,0,0,1,1.76.26,1,1,0,0,0-.06.22l-.12.52c-.08.37-.12.58-.13.64l-.64,4.38-.08.63a10.79,10.79,0,0,0-.13,1.26c0,.28.08.43.24.43.56,0,1.12-.62,1.7-1.86.18.11.27.21.27.32a3.48,3.48,0,0,1-.85,1.4,3.13,3.13,0,0,1-2.16,1.43c-.48,0-.72-.33-.72-1a6.1,6.1,0,0,1,.07-.82l.1-.79.13-.88Zm.56-3.93a3.65,3.65,0,0,0-1.82-.5A2.7,2.7,0,0,0,131,28.16a8.53,8.53,0,0,0-1,4.2c0,.86.26,1.29.77,1.29a3.34,3.34,0,0,0,2.13-1.35A7.75,7.75,0,0,0,135,28Z" transform="translate(-10.88 -8.19)"/><path class="cls-1" d="M141.5,34.49,140,35.1l0-.28.08-.74.08-.69.52-4.6.06-.53q.06-.61.06-1c0-.42-.11-.64-.32-.64-.5,0-1,.57-1.6,1.69-.15-.12-.23-.23-.23-.33,0-.39.36-.93,1.09-1.62a3,3,0,0,1,1.71-1c.57,0,.86.36.86,1.09,0,.18,0,.43,0,.74l-.08.8-.08.68-.09.7a13.44,13.44,0,0,1,2.57-2.88A4.06,4.06,0,0,1,147,25.35c.64,0,1,.44,1,1.33a10.7,10.7,0,0,1-.11,1.22l-.54,3.7a12.44,12.44,0,0,0-.16,1.75c0,.34.09.52.28.52.45,0,1-.61,1.69-1.82.16.1.24.2.24.31,0,.43-.37,1-1.11,1.69a3.07,3.07,0,0,1-1.8,1.05q-.78,0-.78-1.11a16.62,16.62,0,0,1,.21-2.26l.35-2.4a14.24,14.24,0,0,0,.17-1.85c0-.52-.18-.79-.55-.79a3.51,3.51,0,0,0-2.57,1.73,7.36,7.36,0,0,0-1.52,3.69Z" transform="translate(-10.88 -8.19)"/><path class="cls-2" d="M18.55,42.57a.84.84,0,0,1-.28-.74c0-1.62.05-3.25,0-4.87a14.78,14.78,0,0,0-.4-2.44c-.67-3.19-1.37-6.38-2-9.57-.06-.27-.16-.36-.43-.37a2.84,2.84,0,0,1-2.55-3.36.6.6,0,0,1,.62-.54c.41,0,.82,0,1.18.05L14.3,19a2.94,2.94,0,0,1-3-1.33,4,4,0,0,1-.43-1.21.57.57,0,0,1,.39-.69,2.69,2.69,0,0,1,2.22,0l.32.14a.48.48,0,0,0-.26-.5,3.24,3.24,0,0,1-.52-4.95.67.67,0,0,1,.85-.12,3.24,3.24,0,0,1,1,4.81.52.52,0,0,0-.14.53c.13.53.24,1.07.35,1.61a8.41,8.41,0,0,1,.94-.57c.55-.27.78-.18,1.12.33a2.91,2.91,0,0,1-.94,4c-.22.13-.31.26-.2.51s.15.46.26.67a3,3,0,0,1,.33,1.62,5.05,5.05,0,0,0,.18,1.32q.66,3.11,1.33,6.23a1,1,0,0,0,.1.27,12.71,12.71,0,0,1,.53-3.3,11.22,11.22,0,0,1,1.34-2.87,10.85,10.85,0,0,0,1.64-4,.52.52,0,0,0-.08-.41,6.87,6.87,0,0,1-1.27-1.93,14.24,14.24,0,0,0-1.67-2.74,8,8,0,0,1-1.69-3.64,3.81,3.81,0,0,1,0-1.26,1.44,1.44,0,0,1,1.79-1.14c.14,0,.28.06.41.09.16-.39.27-.76.45-1.1a1.73,1.73,0,0,1,3-.38,11.39,11.39,0,0,1,.76,1l.2-.07A1.53,1.53,0,0,1,25.93,11a5.43,5.43,0,0,1-.17,3,9.37,9.37,0,0,1-.63,1.62A19.44,19.44,0,0,0,23.9,19,13.81,13.81,0,0,1,23,20.83a4.49,4.49,0,0,0-.31.76c-.11.39-.18.8-.29,1.27l.28-.18a11.72,11.72,0,0,1,3.79-2,1.53,1.53,0,0,0,.66-.41A7.25,7.25,0,0,0,28.63,18a.47.47,0,0,0,0-.31c-.19-.6-.38-1.21-.58-1.81-.29-.89-.59-1.77-.88-2.67A5,5,0,0,1,27,10.61,1.31,1.31,0,0,1,28,9.43a4,4,0,0,1,1,.12A6.48,6.48,0,0,1,29.42,9a1.39,1.39,0,0,1,2.44.31,1.11,1.11,0,0,1,.14.34c.07.31.22.41.56.41a1.19,1.19,0,0,1,1.17,1.25A4,4,0,0,1,33,13.66c-.34.52-.75,1-1.1,1.48s-.63,1-1,1.49-.72.89-1.09,1.34a.83.83,0,0,0-.2.22c-.38.7-.74,1.4-1.11,2.1.39,0,.81.06,1.15-.37A1.9,1.9,0,0,1,31,19.23a10.3,10.3,0,0,0,1.68-.41,4.82,4.82,0,0,1,2.23-.15.92.92,0,0,1,.85.64,1.14,1.14,0,0,0,.46.75.82.82,0,0,1-.14,1.4c-.2.13-.34.22-.3.51s-.23.59-.64.72a4.44,4.44,0,0,1-2.26,0,16.6,16.6,0,0,0-2-.47,2.09,2.09,0,0,1-1.35-.75.59.59,0,0,0-.56-.21,10.42,10.42,0,0,0-7.67,4.2c-.17.22-.32.46-.48.69l-.13.23s.05,0,.06,0c1.13-.55,2.23-1.12,3.37-1.63a4.49,4.49,0,0,1,6.13,3.34.69.69,0,0,1-.38.8,4.52,4.52,0,0,1-6.39-2.64L23.4,26c-.67.36-1.36.67-2,1.07A13.21,13.21,0,0,0,20,28.25a.85.85,0,0,0-.26.4,10.27,10.27,0,0,0-.47,3.21v10a.68.68,0,0,1-.34.7Zm4.17-23.21h0a4.49,4.49,0,0,0,.23-.61,18,18,0,0,1,1.36-3.7A11,11,0,0,0,25,13a3.29,3.29,0,0,0,0-1.76c-.17-.52-.45-.66-1-.45a2.39,2.39,0,0,0-.62.39A5.1,5.1,0,0,0,22,13.26,3.21,3.21,0,0,1,20.24,15c-.32.13-.66.24-1,.38a17.27,17.27,0,0,1,2.47,4,4.91,4.91,0,0,0,.39.54l.11,0c-.07-.72-.13-1.45-.2-2.17,0-.2,0-.4.21-.45s.33.15.36.38C22.59,18.25,22.65,18.8,22.72,19.36Zm6.57-2.56c.08-.51.14-.92.2-1.34,0-.21.11-.37.33-.34s.28.2.25.41l-.1.77.13-.14a12,12,0,0,1,1.59-2.28,4.6,4.6,0,0,0,1-1.94c0-.28.08-.68-.08-.85s-.56,0-.83.12a3.56,3.56,0,0,0-1.27,1.17,2.34,2.34,0,0,1-1.3.9c-.3.08-.63.12-.9.17ZM18.68,14.54a3.67,3.67,0,0,0,2.08-1c.36-.4.36-.42,0-.82-.15-.17-.31-.35-.48-.51a3.58,3.58,0,0,0-1.56-.94c-.45-.1-.66,0-.73.49A4.71,4.71,0,0,0,18.68,14.54Zm16,5.05a1.61,1.61,0,0,0-.37,0l-1.61.26c-.31,0-.47.18-.44.53s0,.63,0,.94a.31.31,0,0,0,.12.23,4.62,4.62,0,0,0,2.3.31c-.47-.91.42-.82.81-1.12l-.44-.15C34.45,20.38,34.35,20.17,34.65,19.59Zm-10,6.81a3.39,3.39,0,0,0,2.16,1.88,3.15,3.15,0,0,0,2.32-.06c.18-.08.25-.19.18-.36-.14-.35-.29-.69-.45-1.05A4.33,4.33,0,0,1,24.62,26.4ZM21.49,12l1.22-1.6a10.38,10.38,0,0,0-.79-1,.7.7,0,0,0-1.24.16,6.36,6.36,0,0,0-.44,1.15.25.25,0,0,0,.06.23C20.69,11.33,21.1,11.68,21.49,12Zm-7.39,2.6a2.23,2.23,0,0,0-.51-3.33A2.29,2.29,0,0,0,14.1,14.62Zm10.51,11a3.59,3.59,0,0,0,3.71.75A3.38,3.38,0,0,0,24.61,25.6Zm3.27-13.14a2.1,2.1,0,0,0,1.75-.5,3.87,3.87,0,0,0-1-1.4c-.4-.33-.68-.26-.73.24A15.29,15.29,0,0,0,27.88,12.46ZM15.69,23.61a1.9,1.9,0,0,0-1.95-2A1.83,1.83,0,0,0,15.69,23.61Zm.72-6a1.91,1.91,0,0,0-.8,2.69A1.94,1.94,0,0,0,16.41,17.62Zm-4.51-1A1.93,1.93,0,0,0,14.27,18,1.83,1.83,0,0,0,11.9,16.61Zm18.4-5.49c.29-.21.55-.4.8-.6.06,0,.14-.14.13-.17a4,4,0,0,0-.52-.9c-.18-.19-.41,0-.54.17s-.5.43-.37.76A4,4,0,0,0,30.3,11.12Zm1,8.93-1.09.59v.16l1.09.56Z" transform="translate(-10.88 -8.19)"/></svg>